<?xml version="1.0" encoding="utf-8"?>
<!-- Generator: Adobe Illustrator 19.2.1, SVG Export Plug-In . SVG Version: 6.00 Build 0)  -->
<svg version="1.1" id="Capa_1" xmlns="http://www.w3.org/2000/svg" xmlns:xlink="http://www.w3.org/1999/xlink" x="0px" y="0px"
	 width="9px" height="9px" viewBox="0 0 246.4 299.8" style="enable-background:new 0 0 246.4 299.8;" xml:space="preserve"
	>
<path d="M15.9,160.2h49.6v127.1c0,4.4,3,12.5,14.5,12.5h83.1c5.8,0,10.1-1.4,13-4.2c2.2-2.2,3.4-5.1,3.4-8.3c0-0.7,0-1.4-0.1-1.9
	V156.5h54c11.7,0,13-6.5,13-9.3c0-6.1-6.3-12.6-7.9-13.9L133.7,6.6c-0.5-0.7-5.5-6.3-12.8-6.6c-3.1-0.1-7.6,0.7-12.2,5.2
	C96.2,17.7,10.4,131.6,7.2,135.9C6,137.1,0,143.4,0,149.7C0,153.6,2.1,160.2,15.9,160.2z"/>
</svg>
