<?xml version="1.0" encoding="utf-8"?>
<!-- Generator: Adobe Illustrator 19.2.1, SVG Export Plug-In . SVG Version: 6.00 Build 0)  -->
<svg version="1.1" id="Capa_1" xmlns="http://www.w3.org/2000/svg" xmlns:xlink="http://www.w3.org/1999/xlink" x="0px" y="0px"
	 width="8px" height="9px" viewBox="0 0 246.4 299.8"  xml:space="preserve"
	>
<path d="M230.5,139.6h-49.6V12.5c0-4.4-3-12.5-14.5-12.5H83.3c-5.8,0-10.1,1.4-13,4.2c-2.2,2.2-3.4,5.1-3.4,8.3c0,0.7,0,1.4,0.1,1.9
	v128.9H13c-11.7,0-13,6.5-13,9.3c0,6.1,6.3,12.6,7.9,13.9l104.8,126.7c0.5,0.7,5.5,6.3,12.8,6.6c3.1,0.1,7.6-0.7,12.2-5.2
	c12.5-12.5,98.3-126.4,101.5-130.7c1.2-1.2,7.2-7.5,7.2-13.8C246.4,146.2,244.3,139.6,230.5,139.6z"/>
</svg>
