<?xml version="1.0" encoding="utf-8"?>
<!-- Generator: Adobe Illustrator 19.2.1, SVG Export Plug-In . SVG Version: 6.00 Build 0)  -->
<svg version="1.1" id="Layer_4" xmlns="http://www.w3.org/2000/svg" xmlns:xlink="http://www.w3.org/1999/xlink" x="0px" y="0px"
	 width="99px" height="71.4px" viewBox="0 0 99 71.4" style="enable-background:new 0 0 99 71.4;" xml:space="preserve">
<style type="text/css">
	.st0{fill:#3F9EFC;}
	.st1{fill:#344050;}
	.st2{fill:#6D829A;}
	.st3{fill:#FFFFFF;}
	.st4{fill:#282D33;}
</style>
<g>
	<g>
		<g>
			<g>
				<path class="st0" d="M15.5,19.3c0,2.1-1.7,3.8-3.8,3.8H4.3c-2.1,0-3.8-1.7-3.8-3.8l0,0c0-2.1,1.7-3.8,3.8-3.8h7.5
					C13.9,15.5,15.5,17.2,15.5,19.3L15.5,19.3z"/>
				<path class="st0" d="M98.5,19.3c0,2.1-1.7,3.8-3.8,3.8h-7.5c-2.1,0-3.8-1.7-3.8-3.8l0,0c0-2.1,1.7-3.8,3.8-3.8h7.5
					C96.8,15.5,98.5,17.2,98.5,19.3L98.5,19.3z"/>
			</g>
			<g>
				<path class="st0" d="M79.8,3.9c-0.4-1-1.6-1.9-2.7-1.9H21.9c-1.1,0-2.3,0.8-2.7,1.9l-8.6,23.3c-0.4,1,0.2,1.9,1.3,1.9h75.2
					c1.1,0,1.7-0.8,1.3-1.9L79.8,3.9z"/>
				<g>
					<path class="st1" d="M87.1,31.1H11.9c-1.2,0-2.2-0.5-2.8-1.4c-0.6-0.9-0.7-2-0.3-3.2l8.6-23.3C18,1.4,20,0,21.9,0h55.3
						c1.9,0,3.9,1.4,4.6,3.2l8.6,23.3c0.4,1.1,0.3,2.3-0.3,3.2C89.4,30.6,88.3,31.1,87.1,31.1z M12.8,27.1h73.5L78,4.6
						C77.9,4.3,77.4,4,77.1,4H21.9c-0.3,0-0.7,0.3-0.8,0.6L12.8,27.1z"/>
				</g>
			</g>
			<g>
				<g>
					<path class="st2" d="M23.6,62.3c0,3.9-3.2,7.1-7.1,7.1h-4.1c-3.9,0-7.1-3.2-7.1-7.1V38c0-3.9,3.2-7.1,7.1-7.1h4.1
						c3.9,0,7.1,3.2,7.1,7.1V62.3z"/>
					<path class="st1" d="M16.5,71.4h-4.1c-5,0-9.1-4.1-9.1-9.1V38c0-5,4.1-9.1,9.1-9.1h4.1c5,0,9.1,4.1,9.1,9.1v24.3
						C25.6,67.4,21.5,71.4,16.5,71.4z M12.3,32.9c-2.8,0-5.1,2.3-5.1,5.1v24.3c0,2.8,2.3,5.1,5.1,5.1h4.1c2.8,0,5.1-2.3,5.1-5.1V38
						c0-2.8-2.3-5.1-5.1-5.1H12.3z"/>
				</g>
				<g>
					<path class="st2" d="M93.8,62.3c0,3.9-3.2,7.1-7.1,7.1h-4.1c-3.9,0-7.1-3.2-7.1-7.1V38c0-3.9,3.2-7.1,7.1-7.1h4.1
						c3.9,0,7.1,3.2,7.1,7.1V62.3z"/>
					<path class="st1" d="M86.7,71.4h-4.1c-5,0-9.1-4.1-9.1-9.1V38c0-5,4.1-9.1,9.1-9.1h4.1c5,0,9.1,4.1,9.1,9.1v24.3
						C95.8,67.4,91.8,71.4,86.7,71.4z M82.6,32.9c-2.8,0-5.1,2.3-5.1,5.1v24.3c0,2.8,2.3,5.1,5.1,5.1h4.1c2.8,0,5.1-2.3,5.1-5.1V38
						c0-2.8-2.3-5.1-5.1-5.1H82.6z"/>
				</g>
			</g>
			<g>
				<path class="st3" d="M87.3,22.9c-1.2-1-3.4-1.9-5-1.9H16.7c-1.6,0-3.8,0.9-5,1.9l-7.6,6.7C3,30.6,2,32.7,2,34.3v19.1
					c0,1.6,1.3,2.9,2.9,2.9h89.3c1.6,0,2.9-1.3,2.9-2.9V34.3c0-1.6-1-3.7-2.1-4.7L87.3,22.9z"/>
				<g>
					<path class="st1" d="M94.2,58.2H4.9C2.2,58.2,0,56,0,53.4V34.3c0-2.1,1.2-4.8,2.8-6.2l7.6-6.7c1.5-1.4,4.3-2.4,6.3-2.4h65.6
						c2.1,0,4.8,1,6.3,2.4l7.6,6.7c1.6,1.4,2.8,4.1,2.8,6.2v19.1C99,56,96.9,58.2,94.2,58.2z M16.7,23c-1.1,0-2.9,0.7-3.7,1.4
						L5.5,31C4.7,31.7,4,33.3,4,34.3v19.1c0,0.5,0.4,0.9,0.9,0.9h89.3c0.5,0,0.9-0.4,0.9-0.9V34.3c0-1-0.7-2.6-1.5-3.2L86,24.4
						c-0.8-0.7-2.6-1.4-3.7-1.4H16.7z"/>
				</g>
			</g>
			<g>
				<path class="st3" d="M77.4,56.2v-5.6c0-2.4-1.9-4.3-4.3-4.3H27.4c-2.4,0-4.3,1.9-4.3,4.3v5.6H77.4z"/>
				<path class="st1" d="M79.4,58.2H21.1v-7.6c0-3.5,2.8-6.3,6.3-6.3h45.7c3.5,0,6.3,2.8,6.3,6.3V58.2z M25.1,54.2h50.2v-3.6
					c0-1.3-1-2.3-2.3-2.3H27.4c-1.3,0-2.3,1-2.3,2.3V54.2z"/>
			</g>
			<g>
				<g>
					<rect x="8.9" y="45.8" class="st4" width="7.6" height="4"/>
				</g>
				<g>
					<rect x="83.5" y="45.8" class="st4" width="7.6" height="4"/>
				</g>
			</g>
		</g>
		<path class="st0" d="M67.6,36.6c0,2-1.1,3.6-2.5,3.6H34c-1.4,0-2.5-1.6-2.5-3.6l0,0c0-2,1.1-3.6,2.5-3.6h31.1
			C66.5,33.1,67.6,34.7,67.6,36.6L67.6,36.6z"/>
		<g>
			<path class="st2" d="M25.6,36.6c-1.4-2-3.6-3.6-4.9-3.6c-2.1,0-4.3,0-6.4,0c-0.1,0-0.2,0-0.2,0h-3.3c-2,0-3.6,1.6-3.6,3.6
				c0,2,1.6,3.6,3.6,3.6h0.7c0.9,0,1.9,0,2.8,0c3,0,6,0,9,0C26,40.2,27,38.6,25.6,36.6z"/>
			<path class="st2" d="M73.4,36.6c1.4-2,3.6-3.6,4.9-3.6c2.1,0,4.3,0,6.4,0c0.1,0,0.2,0,0.2,0h3.3c2,0,3.6,1.6,3.6,3.6
				c0,2-1.6,3.6-3.6,3.6h-0.7c-0.9,0-1.9,0-2.8,0c-3,0-6,0-9,0C73.1,40.2,72.1,38.6,73.4,36.6z"/>
		</g>
	</g>
</g>
</svg>
