<?xml version="1.0" encoding="utf-8"?>
<!-- Generator: Adobe Illustrator 19.2.1, SVG Export Plug-In . SVG Version: 6.00 Build 0)  -->
<svg version="1.1" id="Capa_1" xmlns="http://www.w3.org/2000/svg" xmlns:xlink="http://www.w3.org/1999/xlink" x="0px" y="0px"
	 viewBox="0 0 512 433.2" style="enable-background:new 0 0 512 433.2;" xml:space="preserve">
<style type="text/css">
	.st0{fill:#FFFFFF;}
</style>
<g>
	<path class="st0" d="M491.7,99.1c-13.5-13.5-29.7-20.3-48.6-20.3H236.3v-9.8c0-18.9-6.8-35.1-20.3-48.6C202.5,6.8,186.3,0,167.4,0
		H68.9C50,0,33.8,6.8,20.3,20.3C6.8,33.8,0,50.1,0,68.9v295.4c0,18.9,6.8,35.1,20.3,48.6c13.5,13.5,29.7,20.3,48.6,20.3h374.2
		c18.9,0,35.1-6.8,48.6-20.3c13.5-13.5,20.3-29.7,20.3-48.6V147.7C512,128.8,505.2,112.6,491.7,99.1z"/>
</g>
</svg>
