<?xml version="1.0" encoding="utf-8"?>
<!-- Generator: Adobe Illustrator 19.2.1, SVG Export Plug-In . SVG Version: 6.00 Build 0)  -->
<svg version="1.1" id="Capa_1" xmlns="http://www.w3.org/2000/svg" xmlns:xlink="http://www.w3.org/1999/xlink" x="0px" y="0px"
	 width="20px" height="19px" viewBox="0 0 20 19" xml:space="preserve">
<path d="M5,6.3C5,6.2,5.1,6,5.3,6h5c0.2,0,0.3,0.1,0.3,0.3c0,0.2-0.1,0.3-0.3,0.3h-5C5.1,6.7,5,6.5,5,6.3z M14.7,11.3
	H5.3c-0.2,0-0.3,0.1-0.3,0.3C5,11.9,5.1,12,5.3,12h9.3c0.2,0,0.3-0.1,0.3-0.3C15,11.5,14.9,11.3,14.7,11.3z M19.9,18.4
	c0.1,0.1,0.1,0.3,0.1,0.4c-0.1,0.1-0.2,0.2-0.3,0.2c0,0,0,0,0,0c-0.1,0-3.3-0.5-5.5-1.8C12.8,17.7,11.4,18,10,18C4.5,18,0,14,0,9
	s4.5-9,10-9s10,4,10,9c0,1.7-0.5,3.4-1.6,4.9C18.6,16,19.1,17.7,19.9,18.4z M18.9,18.2c-0.7-1.2-1-3-1.1-4.4c0-0.1,0-0.2,0.1-0.2
	c1-1.4,1.5-2.9,1.5-4.6c0-4.6-4.2-8.3-9.3-8.3S0.7,4.4,0.7,9s4.2,8.3,9.3,8.3c1.2,0,2.3-0.2,3.4-0.6C12,15.9,12,15.9,12,15.7
	c0-0.1,0.1-0.2,0.2-0.3c0.2-0.1,0.3,0,0.4,0.1c0.2,0.1,1,0.6,1.7,1.1C15.8,17.5,17.8,18,18.9,18.2z M14.7,8.7H5.3C5.1,8.7,5,8.8,5,9
	s0.1,0.3,0.3,0.3h9.3C14.9,9.3,15,9.2,15,9S14.9,8.7,14.7,8.7z"/>
</svg>
