<?xml version="1.0" encoding="utf-8"?>
<!-- Generator: Adobe Illustrator 19.2.1, SVG Export Plug-In . SVG Version: 6.00 Build 0)  -->
<svg version="1.1" id="Capa_1" xmlns="http://www.w3.org/2000/svg" xmlns:xlink="http://www.w3.org/1999/xlink" x="0px" y="0px"
	 width="490.2px" height="473.5px" viewBox="0 0 490.2 473.5" style="enable-background:new 0 0 490.2 473.5;" xml:space="preserve"
	>
<path d="M490.2,247.4v-2.2c0-0.6-0.1-1.3-0.2-1.9l-28.2-177C456.6,24.3,427.1,0,380.7,0L171.5,0c-37.7,0-68.3,30.7-68.3,68.3v196.1
	c0,5.9-4.8,10.7-10.7,10.7H35.2c-5.9,0-10.7-4.8-10.7-10.7V56.5c0-5.9,4.8-10.7,10.7-10.7h33.1c6.7,0,12.3-5.4,12.3-12.2
	s-5.5-12.3-12.3-12.3H35.2C15.8,21.3,0,37.1,0,56.5l0,207.9c0,19.4,15.8,35.2,35.2,35.2h57.2c13.8,0,25.8-8,31.6-19.6
	c0.8,0.5,1.7,0.8,2.7,1.1c3.3,1,81.4,23.9,81.4,91.2v85.5c0,5.4,3.5,10.1,8.6,11.7c1.7,0.6,42.1,12.9,71.5-8.7
	c18.6-13.6,28-36.8,28-69v-76.1h105.6c37.7,0,68.3-30.7,68.3-68.3L490.2,247.4z M465.7,247.3c0,24.2-19.7,43.8-43.8,43.8H304
	c-6.8,0-12.3,5.5-12.3,12.3v88.4c0,24-6.1,40.5-18,49.3c-12.9,9.4-30.7,8.5-41.1,6.9v-75.6c0-86.1-95.2-113.7-99.3-114.8
	c-1.9-0.5-3.8-0.6-5.6-0.2V68.3c0-24.2,19.7-43.8,43.8-43.8h201.4h7.8c34,0,53.1,15.3,56.8,45.3l28.1,176.5L465.7,247.3z"/>
</svg>
