<?xml version="1.0" encoding="utf-8"?>
<!-- Generator: Adobe Illustrator 19.2.1, SVG Export Plug-In . SVG Version: 6.00 Build 0)  -->
<svg version="1.1" id="Capa_1" xmlns="http://www.w3.org/2000/svg" xmlns:xlink="http://www.w3.org/1999/xlink" x="0px" y="0px"
	 width="533.3px" height="533.3px" viewBox="0 0 533.3 533.3" style="enable-background:new 0 0 533.3 533.3;" xml:space="preserve"
	>
<g>
	<path d="M455.2,78.1c50.4,50.4,78.1,117.3,78.1,188.6c0,71.2-27.7,138.2-78.1,188.6c-50.4,50.4-117.3,78.1-188.6,78.1
		s-138.2-27.7-188.6-78.1C27.7,404.9,0,337.9,0,266.7c0-71.2,27.7-138.2,78.1-188.6S195.4,0,266.7,0S404.9,27.7,455.2,78.1z
		 M431.7,431.7c32.8-32.8,54.7-73.8,63.7-118.3c-7,10.3-13.7,14.2-17.9-9c-4.3-37.7-38.9-13.6-60.7-27c-22.9,15.4-74.4-30-65.7,21.3
		c13.5,23.1,72.9-31,43.3,18c-18.9,34.2-69.1,109.9-62.6,149.1c0.8,57.2-58.4,11.9-78.8-7c-13.7-38-4.7-104.4-40.6-123
		c-39-1.7-72.4-5.2-87.5-48.8c-9.1-31.2,9.7-77.5,43.1-84.7c48.9-30.7,66.3,36,112.2,37.2c14.2-14.9,53-19.6,56.2-36.3
		c-30.1-5.3,38.2-25.3-2.9-36.7c-22.6,2.7-37.2,23.5-25.2,41.1c-43.9,10.2-45.3-63.5-87.5-40.2c-1.1,36.8-68.9,11.9-23.5,4.5
		c15.6-6.8-25.4-26.6-3.3-23c10.9-0.6,47.6-13.4,37.6-22.1c20.4-12.7,37.6,30.4,57.6-1c14.4-24.1-6.1-28.5-24.1-16.3
		c-10.2-11.4,18-36.1,42.9-46.7c8.3-3.6,16.2-5.5,22.3-4.9c12.5,14.5,35.7,17,36.9-1.7c-31-14.9-65.2-22.7-100.7-22.7
		c-50.8,0-99.2,16.2-139.2,46c10.8,4.9,16.9,11.1,6.5,18.9c-8.1,24-40.7,56.2-69.4,51.6c-14.9,25.7-24.7,54-28.9,83.6
		c24,7.9,29.6,23.7,24.4,28.9c-12.2,10.7-19.8,25.8-23.6,42.4c7.8,47.8,30.3,91.9,65.2,126.9c44.1,44.1,102.7,68.3,165,68.3
		C329,500,387.6,475.7,431.7,431.7z"/>
</g>
</svg>
