<?xml version="1.0" encoding="utf-8"?>
<!-- Generator: Adobe Illustrator 19.2.1, SVG Export Plug-In . SVG Version: 6.00 Build 0)  -->
<svg version="1.1" id="Capa_1" xmlns="http://www.w3.org/2000/svg" xmlns:xlink="http://www.w3.org/1999/xlink" x="0px" y="0px"
	 viewBox="0 0 512 305.2" style="enable-background:new 0 0 512 305.2;" xml:space="preserve">
<style type="text/css">
	.st0{fill:#AFBAC7;}
</style>
<g>
	<path class="st0" d="M256,0C158.2,0,69.5,53.5,4,140.5c-5.3,7.1-5.3,17.1,0,24.2c65.5,87,154.2,140.6,252,140.6
		s186.5-53.5,252-140.5c5.3-7.1,5.3-17.1,0-24.2C442.5,53.5,353.8,0,256,0z M263,260.1c-64.9,4.1-118.6-49.4-114.5-114.5
		C151.9,92,195.4,48.5,249,45.1c64.9-4.1,118.6,49.4,114.5,114.5C360,213.1,316.5,256.6,263,260.1z M259.8,210.4
		c-35,2.2-63.9-26.6-61.6-61.6c1.8-28.9,25.2-52.3,54.1-54.1c35-2.2,63.9,26.6,61.6,61.6C312,185.3,288.6,208.6,259.8,210.4z"/>
</g>
</svg>
