<?xml version="1.0" encoding="utf-8"?>
<!-- Generator: Adobe Illustrator 19.2.1, SVG Export Plug-In . SVG Version: 6.00 Build 0)  -->
<svg version="1.1" id="Capa_1" xmlns="http://www.w3.org/2000/svg" xmlns:xlink="http://www.w3.org/1999/xlink" x="0px" y="0px"
	 width="13px" height="23px" viewBox="0 0 7 13" style="enable-background:new 0 0 7 13;" xml:space="preserve">
<path d="M6.8,0H5.1C3.2,0,2,1.3,2,3.2v1.5H0.3C0.1,4.7,0,4.8,0,5v2.1c0,0.1,0.1,0.3,0.3,0.3H2v5.4C2,12.9,2.1,13,2.2,13h2.2
	c0.1,0,0.3-0.1,0.3-0.3V7.3h2C6.9,7.3,7,7.2,7,7.1V4.9c0-0.1,0-0.1-0.1-0.2S6.8,4.7,6.7,4.7h-2V3.4c0-0.6,0.1-0.9,0.9-0.9h1.1
	C6.9,2.5,7,2.4,7,2.2v-2C7,0.1,6.9,0,6.8,0z"/>
</svg>
