<?xml version="1.0" encoding="utf-8"?>
<!-- Generator: Adobe Illustrator 19.2.1, SVG Export Plug-In . SVG Version: 6.00 Build 0)  -->
<svg version="1.1" id="Layer_1" xmlns="http://www.w3.org/2000/svg" xmlns:xlink="http://www.w3.org/1999/xlink" x="0px" y="0px"
	 viewBox="0 0 555.1 752.3" style="enable-background:new 0 0 555.1 752.3;" xml:space="preserve">
<style type="text/css">
	.st0{fill:#F3705A;stroke:#FFFFFF;stroke-width:39;stroke-miterlimit:10;}
	.st1{fill:#FFD15C;}
</style>
<path class="st0" d="M123,671c-31.5-35.8-62.9-72.9-83-117.3c-20-47.2-25.7-101.5-15.7-152.9s32.8-100.1,65.8-141.5
	c-2.8,35.8,10.1,72.9,34.3,100.1c-14.3-68.6,8.6-143,54.3-197.3S287.5,71.8,353.1,47.6C320.3,81.9,316,136.2,328.9,182
	c12.9,45.7,40.1,85.8,64.3,127.2c24.3,41.4,47.2,84.3,48.7,131.5c12.9-24.3,27.2-48.7,35.8-75.7c8.6-27.2,12.9-55.8,5.8-83
	c25.7,31.5,40.1,62.9,47.2,102.9s5.8,81.5,1.5,121.6c-5.8,44.4-17.2,90.1-41.4,127.2c-28.5,44.4-74.4,75.7-124.4,92.9
	C277.4,742.4,190.1,729.5,123,671z"/>
<path class="st1" d="M243.3,639.1c87.5,34.1,173.9-69.3,125.9-149.3c0-1.1-1.1-1.1-1.1-2.1c4.3,43.7-6.4,75.7-26.7,93.9
	c10.7-25.6,3.2-55.5-9.6-81.1C319,476,300.9,453.6,287,430.1c-13.9-24.5-24.5-52.3-18.1-80c-25.6,19.2-43.7,48-51.2,78.9
	s-3.2,65.1,10.7,93.9c-16-11.7-27.7-30.9-28.8-51.2c-17.1,20.3-27.7,46.9-26.7,73.6C172.9,586.9,205.9,624.2,243.3,639.1z"/>
</svg>
