<?xml version="1.0" encoding="utf-8"?>
<!-- Generator: Adobe Illustrator 19.2.1, SVG Export Plug-In . SVG Version: 6.00 Build 0)  -->
<svg version="1.1" id="google" xmlns="http://www.w3.org/2000/svg" xmlns:xlink="http://www.w3.org/1999/xlink" x="0px" y="0px"
	 width="26px" height="21px" viewBox="0 0 21 16.1" style="enable-background:new 0 0 21 16.1;" xml:space="preserve">
<g>
	<g>
		<g>
			<path d="M16.1,7.2H8.6v2.5h4.6c-0.7,2.2-2.7,3.8-5.1,3.8c-3,0-5.4-2.4-5.4-5.4s2.4-5.4,5.4-5.4c1.5,0,2.8,0.6,3.8,1.6l1.8-2
				C12.2,0.9,10.3,0,8.1,0C3.6,0,0,3.6,0,8.1s3.6,8.1,8.1,8.1c3.9,0,7.3-2.8,8.1-6.4L16.1,7.2L16.1,7.2L16.1,7.2z"/>
			<polygon points="21,7.2 19.5,7.2 19.5,5.6 18.1,5.6 18.1,7.2 16.6,7.2 16.6,8.5 18.1,8.5 18.1,10 19.5,10 19.5,8.5 21,8.5 			"/>
		</g>
	</g>
</g>
</svg>
