<?xml version="1.0" encoding="utf-8"?>
<!-- Generator: Adobe Illustrator 19.2.1, SVG Export Plug-In . SVG Version: 6.00 Build 0)  -->
<svg version="1.1" id="Layer_4" xmlns="http://www.w3.org/2000/svg" xmlns:xlink="http://www.w3.org/1999/xlink" x="0px" y="0px"
	 width="81.7px" height="81.9px" viewBox="0 0 81.7 81.9" style="enable-background:new 0 0 81.7 81.9;" xml:space="preserve">
<style type="text/css">
	.st0{fill:#FFFFFF;}
	.st1{fill:#344050;}
	.st2{fill:#3F9EFC;}
	.st3{fill:#30C0D8;}
</style>
<g>
	<g>
		<rect x="9" y="27.8" class="st0" width="27.6" height="52.1"/>
		<path class="st1" d="M38.7,81.9H7V25.8h31.6V81.9z M11,77.9h23.6V29.8H11V77.9z"/>
	</g>
	<g>
		<rect x="8.2" y="22.6" class="st0" width="29.2" height="6.2"/>
		<path class="st1" d="M39.5,30.8H6.2V20.6h33.2V30.8z M10.2,26.8h25.2v-2.2H10.2V26.8z"/>
	</g>
	<g>
		<g>
			<path class="st0" d="M13.5,35.7h3.7H13.5z"/>
			<rect x="13.5" y="33.7" class="st1" width="3.7" height="4"/>
		</g>
		<g>
			<path class="st0" d="M20.9,35.7h3.7H20.9z"/>
			<rect x="20.9" y="33.7" class="st1" width="3.7" height="4"/>
		</g>
		<g>
			<path class="st0" d="M28.3,35.7H32H28.3z"/>
			<rect x="28.3" y="33.7" class="st1" width="3.7" height="4"/>
		</g>
	</g>
	<g>
		<g>
			<path class="st0" d="M13.5,42.7h3.7H13.5z"/>
			<rect x="13.5" y="40.7" class="st1" width="3.7" height="4"/>
		</g>
		<g>
			<path class="st0" d="M20.9,42.7h3.7H20.9z"/>
			<rect x="20.9" y="40.7" class="st1" width="3.7" height="4"/>
		</g>
		<g>
			<path class="st0" d="M28.3,42.7H32H28.3z"/>
			<rect x="28.3" y="40.7" class="st1" width="3.7" height="4"/>
		</g>
	</g>
	<g>
		<g>
			<path class="st0" d="M13.5,49.7h3.7H13.5z"/>
			<rect x="13.5" y="47.7" class="st1" width="3.7" height="4"/>
		</g>
		<g>
			<path class="st0" d="M20.9,49.7h3.7H20.9z"/>
			<rect x="20.9" y="47.7" class="st1" width="3.7" height="4"/>
		</g>
		<g>
			<path class="st0" d="M28.3,49.7H32H28.3z"/>
			<rect x="28.3" y="47.7" class="st1" width="3.7" height="4"/>
		</g>
	</g>
	<g>
		<g>
			<path class="st0" d="M13.5,56.7h3.7H13.5z"/>
			<rect x="13.5" y="54.7" class="st1" width="3.7" height="4"/>
		</g>
		<g>
			<path class="st0" d="M20.9,56.7h3.7H20.9z"/>
			<rect x="20.9" y="54.7" class="st1" width="3.7" height="4"/>
		</g>
		<g>
			<path class="st0" d="M28.3,56.7H32H28.3z"/>
			<rect x="28.3" y="54.7" class="st1" width="3.7" height="4"/>
		</g>
	</g>
	<g>
		<g>
			<path class="st0" d="M13.5,63.7h3.7H13.5z"/>
			<rect x="13.5" y="61.7" class="st1" width="3.7" height="4"/>
		</g>
		<g>
			<path class="st0" d="M20.9,63.7h3.7H20.9z"/>
			<rect x="20.9" y="61.7" class="st1" width="3.7" height="4"/>
		</g>
		<g>
			<path class="st0" d="M28.3,63.7H32H28.3z"/>
			<rect x="28.3" y="61.7" class="st1" width="3.7" height="4"/>
		</g>
	</g>
	<g>
		<g>
			<path class="st0" d="M13.5,70.7h3.7H13.5z"/>
			<rect x="13.5" y="68.7" class="st1" width="3.7" height="4"/>
		</g>
		<g>
			<path class="st0" d="M20.9,70.7h3.7H20.9z"/>
			<rect x="20.9" y="68.7" class="st1" width="3.7" height="4"/>
		</g>
		<g>
			<path class="st0" d="M28.3,70.7H32H28.3z"/>
			<rect x="28.3" y="68.7" class="st1" width="3.7" height="4"/>
		</g>
	</g>
	<g>
		<g>
			<rect x="45.7" y="16.7" class="st2" width="25.6" height="63.2"/>
			<path class="st1" d="M73.3,81.9H43.7V14.7h29.6V81.9z M47.7,77.9h21.6V18.7H47.7V77.9z"/>
		</g>
		<g>
			<rect x="49.2" y="10.2" class="st2" width="18.5" height="6.4"/>
			<path class="st1" d="M69.7,18.7H47.2V8.2h22.5V18.7z M51.2,14.7h14.5v-2.4H51.2V14.7z"/>
		</g>
		<g>
			<rect x="49.8" y="21.5" class="st0" width="17.3" height="4"/>
		</g>
		<g>
			<rect x="49.8" y="29.5" class="st0" width="17.3" height="4"/>
		</g>
		<g>
			<rect x="49.8" y="37.5" class="st0" width="17.3" height="4"/>
		</g>
		<g>
			<rect x="49.8" y="45.5" class="st0" width="17.3" height="4"/>
		</g>
		<g>
			<rect x="49.8" y="53.5" class="st0" width="17.3" height="4"/>
		</g>
		<g>
			<rect x="49.8" y="61.5" class="st0" width="17.3" height="4"/>
		</g>
		<g>
			<rect x="49.8" y="69.5" class="st0" width="17.3" height="4"/>
		</g>
		<g>
			<path class="st3" d="M58.5,9.3V0V9.3z"/>
			<rect x="56.5" class="st1" width="4" height="9.3"/>
		</g>
	</g>
	<g>
		<rect y="77.9" class="st1" width="81.7" height="4"/>
	</g>
</g>
</svg>
