<?xml version="1.0" encoding="utf-8"?>
<!-- Generator: Adobe Illustrator 19.2.1, SVG Export Plug-In . SVG Version: 6.00 Build 0)  -->
<svg version="1.1" id="Layer_4" xmlns="http://www.w3.org/2000/svg" xmlns:xlink="http://www.w3.org/1999/xlink" x="0px" y="0px"
	 width="87.3px" height="98.3px" viewBox="0 0 87.3 98.3" style="enable-background:new 0 0 87.3 98.3;" xml:space="preserve">
<style type="text/css">
	.st0{fill:#FFFFFF;}
	.st1{fill:#344050;}
	.st2{fill:#3F9EFC;}
	.st3{fill:#282D33;}
</style>
<g>
	<g>
		<path class="st0" d="M41,95.4C24.3,90.6,2,80.7,2,51.6V14.1l10.9,1.7c1.4,0.2,2.8,0.3,4.3,0.3c2,0,4.1-0.2,6.2-0.6
			c5.6-1,10.7-3.4,13.6-6.2l6.6-6.5l6.6,6.5c2.9,2.9,8,5.2,13.6,6.2c2.1,0.4,4.2,0.6,6.2,0.6c1.5,0,3-0.1,4.3-0.3l10.9-1.7v37.6
			c0,29.1-22.3,38.9-39,43.8l-2.6,0.8L41,95.4z"/>
		<path class="st1" d="M43.7,98.3l-3.2-0.9C23.1,92.3,0,82,0,51.6V11.7l13.2,2.1c3,0.5,6.5,0.4,9.9-0.3c5.2-1,9.9-3.1,12.6-5.7
			l8-7.8l8,7.8c2.6,2.6,7.4,4.7,12.6,5.7c3.4,0.6,6.9,0.7,9.9,0.3l13.2-2.1v39.9c0,30.4-23.1,40.7-40.5,45.7L43.7,98.3z M4,16.4
			v35.2c0,27.7,21.4,37.2,37.6,41.9l2.1,0.6l2.1-0.6c33.7-9.8,37.6-28.6,37.6-41.9V16.4l-8.6,1.3c-3.5,0.5-7.4,0.4-11.2-0.3
			c-6-1.1-11.5-3.6-14.7-6.8l-5.2-5.1l-5.2,5.1c-3.2,3.1-8.7,5.7-14.7,6.8c-3.9,0.7-7.8,0.8-11.2,0.3L4,16.4z"/>
	</g>
	<path class="st2" d="M42.7,89.7C11.9,80.7,8,64.6,8,51.6V21.1l4,0.6c1.7,0.3,3.5,0.4,5.3,0.4c2.4,0,4.9-0.2,7.3-0.7
		c6.8-1.3,12.9-4.1,16.7-7.8l2.4-2.4l2.4,2.4c3.8,3.7,9.9,6.6,16.7,7.8c2.5,0.5,4.9,0.7,7.3,0.7c1.8,0,3.6-0.1,5.3-0.4l4-0.6v30.6
		c0,24.7-18.5,33.3-34.7,38.1l-1,0.3L42.7,89.7z"/>
	<circle class="st0" cx="43.7" cy="51.6" r="24.7"/>
	<g>
		<circle class="st0" cx="43.7" cy="51.6" r="18.7"/>
		<path class="st1" d="M43.7,72.3C32.3,72.3,23,63,23,51.6c0-11.4,9.3-20.7,20.7-20.7c11.4,0,20.7,9.3,20.7,20.7
			C64.4,63,55.1,72.3,43.7,72.3z M43.7,34.9c-9.2,0-16.7,7.5-16.7,16.7c0,9.2,7.5,16.7,16.7,16.7c9.2,0,16.7-7.5,16.7-16.7
			C60.4,42.4,52.9,34.9,43.7,34.9z"/>
	</g>
	<g>
		<g>
			<path class="st3" d="M45.2,54.4l-5.3-2.1c-2.3-1.4-2.8-3.1-2.8-4.2v-2.2c0-2.9,2.3-5.2,5.2-5.2H45c2.9,0,5.2,2.3,5.2,5.2v1h-4v-1
				c0-0.7-0.6-1.2-1.2-1.2h-2.6c-0.7,0-1.2,0.6-1.2,1.2v2.2l0,0c0,0,0.1,0.3,0.7,0.7l4.7,1.8L45.2,54.4z"/>
		</g>
		<g>
			<path class="st3" d="M45,62.7h-2.6c-2.9,0-5.2-2.3-5.2-5.2v-1h4v1c0,0.7,0.6,1.2,1.2,1.2H45c0.7,0,1.2-0.6,1.2-1.2v-2.2
				c0-0.1-0.2-0.4-0.8-0.8l-4.5-1.7l1.4-3.7l5,2c1.8,1.1,2.8,2.7,2.8,4.3v2.2C50.2,60.3,47.8,62.7,45,62.7z"/>
		</g>
		<g>
			<path class="st0" d="M43.9,38.2v4.8V38.2z"/>
			<rect x="41.9" y="38.2" class="st3" width="4" height="4.8"/>
		</g>
		<g>
			<path class="st0" d="M43.9,59.9v4.8V59.9z"/>
			<rect x="41.9" y="59.9" class="st1" width="4" height="4.8"/>
		</g>
	</g>
	<g>
		<g>
			<path class="st0" d="M43.9,21.2v12V21.2z"/>
			<rect x="41.9" y="21.2" class="st1" width="4" height="12"/>
		</g>
	</g>
	<g>
		<g>
			<path class="st0" d="M43.9,70.2v12V70.2z"/>
			<rect x="41.9" y="70.2" class="st3" width="4" height="12"/>
		</g>
	</g>
</g>
</svg>
