<?xml version="1.0" encoding="utf-8"?>
<!-- Generator: Adobe Illustrator 19.2.1, SVG Export Plug-In . SVG Version: 6.00 Build 0)  -->
<svg version="1.1" id="Capa_1" xmlns="http://www.w3.org/2000/svg" xmlns:xlink="http://www.w3.org/1999/xlink" x="0px" y="0px"
	 width="490.2px" height="473.5px" viewBox="0 0 490.2 473.5" style="enable-background:new 0 0 490.2 473.5;" xml:space="preserve"
	>

<path class="st0" d="M490.1,226.1c0-37.6-30.6-68.3-68.3-68.3H316.2V81.7c0-32.2-9.4-55.4-28-69C258.8-8.9,218.4,3.4,216.7,4
	c-5.1,1.6-8.6,6.3-8.6,11.7v85.5c0,67.3-78.1,90.2-81.4,91.2c-1,0.3-1.9,0.6-2.7,1.1c-5.8-11.6-17.8-19.6-31.6-19.6H35.2
	C15.8,173.9,0,189.7,0,209.1V417c0,19.4,15.8,35.2,35.2,35.2h33.1c6.8,0,12.3-5.5,12.3-12.3s-5.6-12.2-12.3-12.2H35.2
	c-5.9,0-10.7-4.8-10.7-10.7V209.1c0-5.9,4.8-10.7,10.7-10.7h57.3c5.9,0,10.7,4.8,10.7,10.7v196.1c0,37.6,30.6,68.3,68.3,68.3h209.2
	c46.4,0,75.9-24.3,81.1-66.3l28.2-177c0.1-0.6,0.2-1.3,0.2-1.9v-2.2L490.1,226.1z M465.6,227.2l-28.1,176.5
	c-3.7,30-22.8,45.3-56.8,45.3h-7.8H171.5c-24.1,0-43.8-19.6-43.8-43.8V216.1c1.8,0.4,3.7,0.3,5.6-0.2c4.1-1.1,99.3-28.7,99.3-114.8
	V25.5c10.4-1.6,28.2-2.5,41.1,6.9c11.9,8.8,18,25.3,18,49.3v88.4c0,6.8,5.5,12.3,12.3,12.3h117.9c24.1,0,43.8,19.6,43.8,43.8
	L465.6,227.2z"/>
</svg>
