<?xml version="1.0" encoding="utf-8"?>
<!-- Generator: Adobe Illustrator 19.2.1, SVG Export Plug-In . SVG Version: 6.00 Build 0)  -->
<svg version="1.1" id="Layer_4" xmlns="http://www.w3.org/2000/svg" xmlns:xlink="http://www.w3.org/1999/xlink" x="0px" y="0px"
	 width="65.8px" height="97.4px" viewBox="0 0 65.8 97.4" style="enable-background:new 0 0 65.8 97.4;" xml:space="preserve">
<style type="text/css">
	.st0{fill:#FFFFFF;}
	.st1{fill:#344050;}
	.st2{fill:#3F9EFC;}
</style>
<g>
	<g>
		<g>
			<g>
				<path class="st0" d="M9.9,59.8c4,4,10,5,16.2,3.4C27.7,57,26.6,51,22.7,47c-4-4-10-5-16.2-3.4C4.9,49.7,5.9,55.8,9.9,59.8z"/>
				<path class="st1" d="M20.5,65.9L20.5,65.9c-4.8,0-9-1.6-12.1-4.7c-4.4-4.4-5.8-11-3.9-18.1L4.9,42L6,41.7c2-0.5,4-0.8,6-0.8
					c4.8,0,9,1.6,12.1,4.7c4.4,4.4,5.8,11,3.9,18.1l-0.3,1.1l-1.1,0.3C24.5,65.6,22.5,65.9,20.5,65.9z M8.2,45.3
					c-1.1,5.3,0,10,3.1,13.1c2.3,2.3,5.5,3.5,9.3,3.5l0,0c1.2,0,2.5-0.1,3.8-0.4c1.1-5.3,0-10-3.1-13.1c-2.3-2.3-5.5-3.5-9.3-3.5
					C10.7,44.9,9.5,45,8.2,45.3z"/>
			</g>
			<g>
				<path class="st1" d="M6.5,43.6l26,26L6.5,43.6z"/>
				
					<rect x="17.5" y="38.2" transform="matrix(0.7071 -0.7071 0.7071 0.7071 -34.3204 30.3767)" class="st1" width="4" height="36.8"/>
			</g>
		</g>
		<g>
			<g>
				<path class="st0" d="M51.9,60.2c-3,3-7.6,3.8-12.3,2.6c-1.2-4.7-0.5-9.3,2.6-12.3c3-3,7.6-3.8,12.3-2.6
					C55.7,52.6,55,57.2,51.9,60.2z"/>
				<path class="st1" d="M43.8,65.4c-1.5,0-3.1-0.2-4.7-0.6L38,64.4l-0.3-1.1c-1.5-5.6-0.4-10.8,3.1-14.2c2.4-2.4,5.7-3.7,9.5-3.7
					c1.5,0,3.1,0.2,4.7,0.6l1.1,0.3l0.3,1.1c1.5,5.6,0.4,10.8-3.1,14.2C50.9,64.1,47.6,65.4,43.8,65.4z M41.3,61.1
					c0.8,0.2,1.7,0.2,2.5,0.2c2.7,0,5.1-0.9,6.7-2.5c2.2-2.2,3-5.5,2.3-9.2c-0.8-0.2-1.7-0.2-2.5-0.2c-2.7,0-5.1,0.9-6.7,2.5
					C41.4,54.1,40.6,57.4,41.3,61.1z"/>
			</g>
			<g>
				<path class="st1" d="M40,62.4L28.8,73.6L40,62.4z"/>
				
					<rect x="26.5" y="66" transform="matrix(0.7069 -0.7073 0.7073 0.7069 -38.0339 44.2763)" class="st1" width="15.8" height="4"/>
			</g>
		</g>
	</g>
	<g>
		<path class="st1" d="M32.7,19.7v57.1V19.7z"/>
		<rect x="30.7" y="19.7" class="st1" width="4" height="57.1"/>
	</g>
	<g>
		<g>
			<path class="st2" d="M16.2,95.6c0.1,1,0.8,1.8,1.5,1.8c9.3,0,20.5,0,29.8,0c0.7,0,1.4-0.8,1.5-1.8c0.9-8,0.8-9.6,1.6-17.7
				c0.1-1-0.5-1.8-1.4-1.8c-11.1,0-22.2,0-33.3,0c-0.9,0-1.5,0.8-1.4,1.8C15.5,86,15.3,87.6,16.2,95.6z"/>
			<rect x="12.3" y="69.1" class="st2" width="40.7" height="10.1"/>
		</g>
	</g>
	<g>
		<path class="st0" d="M12.3,78.8H53H12.3z"/>
		<rect x="12.3" y="76.8" class="st1" width="40.7" height="4"/>
	</g>
	<g>
		<g>
			<rect x="2" y="2" class="st0" width="61.8" height="34"/>
			<path class="st1" d="M65.8,38H0V0h65.8V38z M4,34h57.8V4H4V34z"/>
		</g>
		<path class="st2" d="M10.5,31.3c-0.3-1.9-1.9-3.4-3.8-3.7V10.3c1.9-0.3,3.4-1.7,3.8-3.6h45c0.4,1.9,1.9,3.3,3.8,3.6v17.4
			c-1.9,0.3-3.4,1.8-3.8,3.7H10.5z"/>
		<g>
			<circle class="st0" cx="32.9" cy="19" r="7.2"/>
			<path class="st1" d="M32.9,28.2c-5.1,0-9.2-4.1-9.2-9.2c0-5.1,4.1-9.2,9.2-9.2c5.1,0,9.2,4.1,9.2,9.2
				C42.1,24.1,38,28.2,32.9,28.2z M32.9,13.8c-2.9,0-5.2,2.3-5.2,5.2c0,2.9,2.3,5.2,5.2,5.2c2.9,0,5.2-2.3,5.2-5.2
				C38.1,16.1,35.8,13.8,32.9,13.8z"/>
		</g>
		<g>
			<g>
				<g>
					<path class="st0" d="M44,19h10.6H44z"/>
					<rect x="44" y="17" class="st1" width="10.6" height="4"/>
				</g>
			</g>
			<g>
				<g>
					<path class="st0" d="M21.9,19H11.3H21.9z"/>
					<rect x="11.3" y="17" class="st1" width="10.6" height="4"/>
				</g>
			</g>
		</g>
	</g>
</g>
</svg>
