<?xml version="1.0" encoding="utf-8"?>
<!-- Generator: Adobe Illustrator 19.2.1, SVG Export Plug-In . SVG Version: 6.00 Build 0)  -->
<svg version="1.1" id="Layer_4" xmlns="http://www.w3.org/2000/svg" xmlns:xlink="http://www.w3.org/1999/xlink" x="0px" y="0px"
	 width="99.3px" height="78.2px" viewBox="0 0 99.3 78.2" style="enable-background:new 0 0 99.3 78.2;" xml:space="preserve">
<style type="text/css">
	.st0{fill:#FFFFFF;}
	.st1{fill:#282D33;}
	.st2{fill:#3F9EFC;}
</style>
<g>
	<g>
		<g>
			<path class="st0" d="M92.4,16.7c2.7,0,4.9,2.2,4.9,4.9v49.8c0,2.7-2.2,4.9-4.9,4.9H6.9C4.2,76.2,2,74,2,71.3V21.6
				c0-2.7,2.2-4.9,4.9-4.9h43.2H92.4z"/>
			<path class="st1" d="M92.4,78.2H6.9c-3.8,0-6.9-3.1-6.9-6.9V21.6c0-3.8,3.1-6.9,6.9-6.9h43.2v4H6.9C5.3,18.7,4,20,4,21.6v49.8
				c0,1.6,1.3,2.9,2.9,2.9h85.5c1.6,0,2.9-1.3,2.9-2.9V21.6c0-1.6-1.3-2.9-2.9-2.9v-4c3.8,0,6.9,3.1,6.9,6.9v49.8
				C99.3,75.1,96.2,78.2,92.4,78.2z"/>
		</g>
		<g>
			<path class="st0" d="M9.4,49.9H26H9.4z"/>
			<rect x="9.4" y="47.9" class="st1" width="16.6" height="4"/>
		</g>
		<g>
			<path class="st0" d="M9.4,61h35.4H9.4z"/>
			<rect x="9.4" y="59" class="st1" width="35.4" height="4"/>
		</g>
		<g>
			<path class="st0" d="M30.2,49.9h16.6H30.2z"/>
			<rect x="30.2" y="47.9" class="st1" width="16.6" height="4"/>
		</g>
		<g>
			<path class="st0" d="M50.9,49.9h16.6H50.9z"/>
			<rect x="50.9" y="47.9" class="st1" width="16.6" height="4"/>
		</g>
		<g>
			<path class="st0" d="M71.7,49.9h16.6H71.7z"/>
			<rect x="71.7" y="47.9" class="st1" width="16.6" height="4"/>
		</g>
		<rect x="10.1" y="29.1" class="st2" width="15.8" height="11"/>
	</g>
	<g>
		<g>
			<g>
				<path class="st1" d="M73.2,40h-2.6c-6.5,0-10.3-3.4-10.3-9.1V11.3C60.2,5.1,64.9,0,70.6,0h2.6c5.7,0,10.3,5.1,10.3,11.3V31
					C83.5,36.7,79.6,40,73.2,40z M70.6,4c-3.5,0-6.3,3.3-6.3,7.3V31c0,1.3,0,5.1,6.3,5.1h2.6c6.3,0,6.3-3.8,6.3-5.1V11.3
					c0-4-2.8-7.3-6.3-7.3H70.6z"/>
			</g>
		</g>
		<g>
			<rect x="57.1" y="15.5" class="st2" width="29.5" height="26"/>
			<path class="st1" d="M84.6,17.5v22H59.1v-22H84.6L84.6,17.5z M88.6,13.5h-4H59.1h-4v4v22v4h4h25.5h4v-4v-22V13.5L88.6,13.5z"/>
		</g>
		<path class="st1" d="M71.9,22.2c-1.3,0-2.4,1.2-2.4,2.6c0,1,0.5,1.8,1.1,2.3l-0.5,6.5h1.7h1.7L73.1,27c0.7-0.5,1.1-1.3,1.1-2.3
			C74.2,23.3,73.2,22.2,71.9,22.2L71.9,22.2z"/>
	</g>
</g>
</svg>
