<?xml version="1.0" encoding="utf-8"?>
<!-- Generator: Adobe Illustrator 19.2.1, SVG Export Plug-In . SVG Version: 6.00 Build 0)  -->
<svg version="1.1" id="Capa_1" xmlns="http://www.w3.org/2000/svg" xmlns:xlink="http://www.w3.org/1999/xlink" x="0px" y="0px"
	 viewBox="0 0 393.5 512" style="enable-background:new 0 0 393.5 512;" xml:space="preserve">
<style type="text/css">
	.st0{fill:#FFFFFF;}
</style>
<g>
	<path class="st0" d="M365.6,206.8h-10v-46.7c0-86.4-68.5-158.5-154.2-160c-2.3,0-7,0-9.4,0c-85.7,1.5-154.2,73.7-154.2,160v46.7
		h-10C12.5,206.8,0,222.6,0,242.2v234.2C0,496,12.5,512,27.9,512h337.7c15.4,0,27.9-16,27.9-35.6V242.2
		C393.5,222.6,381,206.8,365.6,206.8z M228.4,359.1v70.8c0,8.1-6.8,15-14.9,15H180c-8.1,0-14.9-6.9-14.9-15v-70.8
		c-7.9-7.7-12.4-18.4-12.4-30.3c0-22.4,17.3-41.7,39.4-42.6c2.3-0.1,7-0.1,9.4,0c22.1,0.9,39.4,20.2,39.4,42.6
		C240.8,340.6,236.3,351.3,228.4,359.1z M289.9,206.8h-88.4h-9.4h-88.4v-46.7c0-51.4,41.8-94,93.1-94s93.1,42.5,93.1,94L289.9,206.8
		L289.9,206.8z"/>
</g>
</svg>
