<?xml version="1.0" encoding="utf-8"?>
<!-- Generator: Adobe Illustrator 19.2.1, SVG Export Plug-In . SVG Version: 6.00 Build 0)  -->
<svg version="1.1" id="Capa_1" xmlns="http://www.w3.org/2000/svg" xmlns:xlink="http://www.w3.org/1999/xlink" x="0px" y="0px"
	 width="34.5px" height="30px" viewBox="0 0 34.5 30" style="enable-background:new 0 0 34.5 30;" xml:space="preserve">
<g>
	<path d="M29.3,17.1c-2.3-0.5-5.3-2-6.4-3.7c-0.6-1-0.7-2.1-0.2-3c0-0.1,0.1-0.1,0.1-0.2c0-0.2,0-0.5,0.2-0.8c0,0,0,0,0,0h-12
		c0,0,0,0,0,0c0,0,0,0,0,0c0.3,0.4,0.5,0.8,0.6,1c0.5,1,0.4,2.1-0.2,3.1c-1.1,1.8-4.1,3.2-6.4,3.7L4.6,27.9C4.5,29,5.3,30,6.3,30h22
		c1,0,1.8-1,1.7-2.1L29.3,17.1z M13.7,24.5h-2.1c-0.4,0-0.7-0.3-0.7-0.7s0.3-0.7,0.7-0.7h2.1c0.4,0,0.7,0.3,0.7,0.7
		S14.1,24.5,13.7,24.5z M13.7,21.9h-2.1c-0.4,0-0.7-0.3-0.7-0.7c0-0.4,0.3-0.7,0.7-0.7h2.1c0.4,0,0.7,0.3,0.7,0.7
		C14.4,21.6,14.1,21.9,13.7,21.9z M13.7,19.2h-2.1c-0.4,0-0.7-0.3-0.7-0.7c0-0.4,0.3-0.7,0.7-0.7h2.1c0.4,0,0.7,0.3,0.7,0.7
		S14.1,19.2,13.7,19.2z M18.3,24.5h-2.1c-0.4,0-0.7-0.3-0.7-0.7s0.3-0.7,0.7-0.7h2.1c0.4,0,0.7,0.3,0.7,0.7
		C19,24.2,18.7,24.5,18.3,24.5z M18.3,21.9h-2.1c-0.4,0-0.7-0.3-0.7-0.7c0-0.4,0.3-0.7,0.7-0.7h2.1c0.4,0,0.7,0.3,0.7,0.7
		C19,21.6,18.7,21.9,18.3,21.9z M18.3,19.2h-2.1c-0.4,0-0.7-0.3-0.7-0.7c0-0.4,0.3-0.7,0.7-0.7h2.1c0.4,0,0.7,0.3,0.7,0.7
		C19,18.9,18.7,19.2,18.3,19.2z M22.9,24.5h-2.1c-0.4,0-0.7-0.3-0.7-0.7s0.3-0.7,0.7-0.7h2.1c0.4,0,0.7,0.3,0.7,0.7
		S23.3,24.5,22.9,24.5z M22.9,21.9h-2.1c-0.4,0-0.7-0.3-0.7-0.7c0-0.4,0.3-0.7,0.7-0.7h2.1c0.4,0,0.7,0.3,0.7,0.7
		C23.6,21.6,23.3,21.9,22.9,21.9z M22.9,19.2h-2.1c-0.4,0-0.7-0.3-0.7-0.7c0-0.4,0.3-0.7,0.7-0.7h2.1c0.4,0,0.7,0.3,0.7,0.7
		S23.3,19.2,22.9,19.2z M34.4,10.8c0,0.2,0,0.4-0.1,0.6c-0.5,1.2-1.4,2.2-2.1,3.3c-0.9,1.4-8.4-1.6-7.4-3.5c0.4-0.7,1.8-2.6,1.9-3.4
		c0.1-0.7-0.8-1.2-1.7-1.3c-2.2-0.2-5.1,0-7.5,0v0c-0.1,0-0.1,0-0.2,0c-0.1,0-0.1,0-0.2,0v0c-2.4,0-5.2-0.2-7.5,0
		C8.8,6.6,7.9,7.2,8,7.9c0.1,0.8,1.5,2.7,1.9,3.4c1,1.9-6.6,4.9-7.4,3.5c-0.7-1.1-1.6-2.1-2.1-3.3c-0.1-0.2-0.1-0.4-0.1-0.6
		c-1.1-4.9,3.1-10,9.6-10.5c2.4-0.2,4.9-0.3,7.4-0.4v0c0.1,0,0.1,0,0.2,0c0.1,0,0.1,0,0.2,0v0c2.5,0,4.9,0.2,7.4,0.4
		C31.2,0.9,35.5,5.9,34.4,10.8z"/>
</g>
</svg>
