<?xml version="1.0" encoding="utf-8"?>
<!-- Generator: Adobe Illustrator 19.2.1, SVG Export Plug-In . SVG Version: 6.00 Build 0)  -->
<svg version="1.1" id="Layer_1" xmlns="http://www.w3.org/2000/svg" xmlns:xlink="http://www.w3.org/1999/xlink" x="0px" y="0px"
	 width="14px" height="14px" viewBox="0 0 496.2 496.2" style="enable-background:new 0 0 496.2 496.2;" xml:space="preserve"
	>
<style type="text/css">
	.st0{fill:#D0DAEA;}
	.st1{fill:#FFFFFF;}
</style>
<g>
	<path class="st0" d="M248.1,0C111.1,0,0,111.1,0,248.1s111.1,248.1,248.1,248.1s248.1-111.1,248.1-248.1S385.1,0,248.1,0z
		 M268.2,405.6c-6.5,5.9-14.1,8.8-22.8,8.8c-8.9,0-16.7-2.9-23.4-8.7c-6.7-5.8-10-13.9-10-24.3c0-9.2,3.2-17,9.7-23.3
		c6.4-6.3,14.4-9.4,23.7-9.4c9.2,0,17,3.2,23.3,9.4c6.3,6.3,9.4,14.1,9.4,23.3C278.1,391.7,274.8,399.7,268.2,405.6z M350.4,202.1
		c-5.1,9.4-11.1,17.5-18,24.3c-7,6.8-19.4,18.3-37.5,34.4c-5,4.5-9,8.5-12,12c-3,3.4-5.2,6.6-6.7,9.4c-1.5,2.9-2.6,5.7-3.4,8.6
		c-0.8,2.9-2,7.9-3.6,15.1c-2.8,15.2-11.5,22.9-26.1,22.9c-7.6,0-14-2.5-19.2-7.5s-7.8-12.4-7.8-22.2c0-12.3,1.9-23,5.7-32
		c3.8-9,8.9-16.9,15.2-23.7c6.3-6.8,14.8-14.9,25.5-24.3c9.4-8.2,16.1-14.4,20.3-18.6c4.2-4.2,7.7-8.8,10.5-14
		c2.9-5.1,4.3-10.7,4.3-16.7c0-11.7-4.4-21.6-13.1-29.7c-8.7-8.1-20-12.1-33.7-12.1c-16.1,0-28,4.1-35.6,12.2
		c-7.6,8.1-14.1,20.1-19.3,35.9c-5,16.6-14.4,24.8-28.3,24.8c-8.2,0-15.1-2.9-20.8-8.7c-5.8-5.6-8.6-11.9-8.6-18.6
		c0-13.9,4.5-28,13.4-42.3c8.9-14.3,22-26.1,39.1-35.5c17.1-9.4,37.1-14.1,60-14.1c21.2,0,40,3.9,56.3,11.8
		c16.3,7.8,28.8,18.5,37.7,32c8.9,13.5,13.3,28.1,13.3,43.9C358,181.9,355.5,192.8,350.4,202.1z"/>
	<path class="st1" d="M307,93.5c-16.3-7.9-35.1-11.8-56.3-11.8c-22.9,0-42.9,4.7-60,14.1c-17.1,9.4-30.2,21.2-39.1,35.5
		c-8.9,14.3-13.4,28.4-13.4,42.3c0,6.7,2.8,13,8.6,18.6c5.7,5.8,12.6,8.7,20.8,8.7c13.9,0,23.3-8.2,28.3-24.8
		c5.2-15.8,11.7-27.8,19.3-35.9c7.6-8.1,19.5-12.2,35.6-12.2c13.7,0,25,4,33.7,12.1c8.7,8.1,13.1,18,13.1,29.7
		c0,6-1.4,11.6-4.3,16.7c-2.8,5.2-6.3,9.8-10.5,14c-4.2,4.2-10.9,10.4-20.3,18.6c-10.7,9.4-19.2,17.5-25.5,24.3
		c-6.3,6.8-11.4,14.7-15.2,23.7c-3.8,9-5.7,19.7-5.7,32c0,9.8,2.6,17.2,7.8,22.2s11.6,7.5,19.2,7.5c14.6,0,23.3-7.7,26.1-22.9
		c1.6-7.2,2.8-12.2,3.6-15.1c0.8-2.9,1.9-5.7,3.4-8.6c1.5-2.8,3.7-6,6.7-9.4c3-3.5,7-7.5,12-12c18.1-16.1,30.5-27.6,37.5-34.4
		c6.9-6.8,12.9-14.9,18-24.3c5.1-9.3,7.6-20.2,7.6-32.7c0-15.8-4.4-30.4-13.3-43.9C335.8,112,323.3,101.3,307,93.5z"/>
	<path class="st1" d="M245.4,348.7c-9.3,0-17.3,3.1-23.7,9.4c-6.5,6.3-9.7,14.1-9.7,23.3c0,10.4,3.3,18.5,10,24.3
		c6.7,5.8,14.5,8.7,23.4,8.7c8.7,0,16.3-2.9,22.8-8.8c6.6-5.9,9.9-13.9,9.9-24.2c0-9.2-3.1-17-9.4-23.3
		C262.4,351.9,254.6,348.7,245.4,348.7z"/>
</g>
</svg>
